<svg xmlns="http://www.w3.org/2000/svg" version="1.1" xmlns:xlink="http://www.w3.org/1999/xlink" xmlns:svgjs="http://svgjs.com/svgjs" width="1440" height="560" preserveAspectRatio="none" viewBox="0 0 1440 560"><g mask="url(&quot;#SvgjsMask1032&quot;)" fill="none"><rect width="1440" height="560" x="0" y="0" fill="rgba(73, 108, 66, 1)"></rect><path d="M720 805.69C867.89 805.46 1027.6 796.72 1131.06 691.06 1233.82 586.13 1231.7 426.83 1234.74 280 1237.87 128.61 1243.89-30.87 1148.44-148.44 1044.62-276.28 884.68-355.35 720-353.97 556.47-352.64 409.09-261.97 298.59-141.41 193.12-26.31 137.46 123.88 139.16 280 140.81 434.38 193.16 588.8 307.61 692.39 417.5 791.84 571.79 805.92 720 805.69" fill="rgba(177, 211, 75, 1)"></path><path d="M720 668.55C829.31 668.38 947.36 661.92 1023.82 583.82 1099.78 506.27 1098.22 388.53 1100.46 280 1102.77 168.11 1107.23 50.23 1036.68-36.68 959.94-131.16 841.72-189.61 720-188.59 599.13-187.6 490.19-120.59 408.53-31.47 330.56 53.59 289.42 164.6 290.68 280 291.91 394.1 330.6 508.24 415.19 584.81 496.42 658.32 610.45 668.72 720 668.55" fill="rgba(0, 0, 0, 1)"></path><path d="M720 531.42C790.73 531.31 867.11 527.13 916.59 476.59 965.74 426.41 964.73 350.22 966.18 280 967.68 207.6 970.56 131.32 924.91 75.09 875.25 13.95 798.76-23.86 720-23.2 641.79-22.57 571.3 20.8 518.46 78.46 468.01 133.5 441.39 205.33 442.21 280 443 353.83 468.03 427.69 522.77 477.23 575.33 524.79 649.12 531.53 720 531.42" fill="rgba(16, 119, 125, 1)"></path><path d="M720 394.28C752.15 394.23 786.87 392.33 809.36 369.36 831.7 346.55 831.24 311.92 831.9 280 832.58 247.09 833.89 212.42 813.14 186.86 790.57 159.07 755.8 141.88 720 142.18 684.45 142.47 652.41 162.18 628.39 188.39 605.46 213.41 593.36 246.06 593.73 280 594.09 313.56 605.47 347.13 630.35 369.65 654.24 391.27 687.78 394.33 720 394.28" fill="rgba(0, 176, 200, 1)"></path></g><defs><mask id="SvgjsMask1032"><rect width="1440" height="560" fill="#ffffff"></rect></mask></defs></svg>