<?xml version="1.0" standalone="no"?><svg xmlns="http://www.w3.org/2000/svg" viewBox="0 0 1440 320"><path fill="#B1D34Bff" fill-opacity="1" d="M0,96L24,117.3C48,139,96,181,144,202.7C192,224,240,224,288,197.3C336,171,384,117,432,96C480,75,528,85,576,122.7C624,160,672,224,720,213.3C768,203,816,117,864,96C912,75,960,117,1008,117.3C1056,117,1104,75,1152,48C1200,21,1248,11,1296,5.3C1344,0,1392,0,1416,0L1440,0L1440,320L1416,320C1392,320,1344,320,1296,320C1248,320,1200,320,1152,320C1104,320,1056,320,1008,320C960,320,912,320,864,320C816,320,768,320,720,320C672,320,624,320,576,320C528,320,480,320,432,320C384,320,336,320,288,320C240,320,192,320,144,320C96,320,48,320,24,320L0,320Z"></path></svg>